<?xml version="1.0" ?><svg id="Layer_3" style="enable-background:new 0 0 64 64;" version="1.1" viewBox="0 0 64 64" xml:space="preserve" xmlns="http://www.w3.org/2000/svg" xmlns:xlink="http://www.w3.org/1999/xlink"><g><path d="M58,39h-3v-7c0-0.553-0.448-1-1-1H30c-0.552,0-1,0.447-1,1v25H9.524L5.101,11h29.782l-1.991,17.89l1.987,0.221L36.895,11   H37c1.103,0,2-0.897,2-2V7c0-1.103-0.897-2-2-2h-1.816l-6.288-2.379c-5.737-2.17-12.056-2.17-17.792,0L4.816,5H3   C1.897,5,1,5.897,1,7v2c0,1.103,0.897,2,2,2h0.091l4.826,50.191C8.017,62.223,8.873,63,9.909,63H30h24c0.552,0,1-0.447,1-1v-3h3   c2.757,0,5-2.243,5-5V44C63,41.243,60.757,39,58,39z M11.812,4.492c5.28-1.998,11.096-1.998,16.376,0L29.53,5H10.47L11.812,4.492z    M4,9H3V7h34v2h-1h-1H5H4z M53,57H31V37h1.882c0.309,0,0.586,0.171,0.724,0.447C34.084,38.405,35.047,39,36.118,39h1.764   c1.071,0,2.034-0.595,2.513-1.553C40.532,37.171,40.81,37,41.118,37h1.764c0.309,0,0.586,0.171,0.724,0.447   C44.084,38.405,45.047,39,46.118,39h1.764c1.071,0,2.034-0.595,2.513-1.553C50.532,37.171,50.81,37,51.118,37H53V57z M55,45h2v8h-2   V45z M53,33v2h-1.882c-1.071,0-2.034,0.595-2.513,1.553C48.468,36.829,48.19,37,47.882,37h-1.764c-0.309,0-0.586-0.171-0.724-0.447   C44.916,35.595,43.953,35,42.882,35h-1.764c-1.071,0-2.034,0.595-2.513,1.553C38.468,36.829,38.19,37,37.882,37h-1.764   c-0.309,0-0.586-0.171-0.724-0.447C34.916,35.595,33.953,35,32.882,35H31v-2H53z M9.716,59H29v2H9.909L9.716,59z M53,61H31v-2h22   V61z M61,54c0,1.654-1.346,3-3,3h-3v-2h2c1.103,0,2-0.897,2-2v-8c0-1.103-0.897-2-2-2h-2v-2h3c1.654,0,3,1.346,3,3V54z"/><path d="M42,41c-3.86,0-7,3.141-7,7s3.14,7,7,7s7-3.141,7-7S45.86,41,42,41z M42,53c-2.757,0-5-2.243-5-5s2.243-5,5-5s5,2.243,5,5   S44.757,53,42,53z"/><path d="M47,13c3.309,0,6-2.691,6-6s-2.691-6-6-6s-6,2.691-6,6S43.691,13,47,13z M47,3c2.206,0,4,1.794,4,4s-1.794,4-4,4   s-4-1.794-4-4S44.794,3,47,3z"/><path d="M59,20c2.206,0,4-1.794,4-4s-1.794-4-4-4s-4,1.794-4,4S56.794,20,59,20z M59,14c1.103,0,2,0.897,2,2s-0.897,2-2,2   s-2-0.897-2-2S57.897,14,59,14z"/><path d="M48,19c-2.206,0-4,1.794-4,4s1.794,4,4,4s4-1.794,4-4S50.206,19,48,19z M48,25c-1.103,0-2-0.897-2-2s0.897-2,2-2   s2,0.897,2,2S49.103,25,48,25z"/><path d="M20,23c-4.962,0-9,4.037-9,9s4.038,9,9,9s9-4.037,9-9S24.962,23,20,23z M20,39c-3.86,0-7-3.141-7-7s3.14-7,7-7s7,3.141,7,7   S23.86,39,20,39z"/></g></svg>