<?xml version="1.0" encoding="iso-8859-1"?>
<!-- Generator: Adobe Illustrator 16.0.0, SVG Export Plug-In . SVG Version: 6.00 Build 0)  -->
<!DOCTYPE svg PUBLIC "-//W3C//DTD SVG 1.1//EN" "http://www.w3.org/Graphics/SVG/1.1/DTD/svg11.dtd">
<svg version="1.1" id="Capa_1" xmlns="http://www.w3.org/2000/svg" xmlns:xlink="http://www.w3.org/1999/xlink" x="0px" y="0px"
	 width="59.258px" height="59.257px" viewBox="0 0 59.258 59.257" style="enable-background:new 0 0 59.258 59.257;"
	 xml:space="preserve">
<g>
	<path d="M52.237,21.83c1.438,0.125,3.062,1.25,5.812-1s0-4.438-0.375-4.625s-0.312-0.938,0.125-1.5
		c0.438-0.562,1-1.312-1.062-2.312c-2.062-1-4.625,0.875-4.625,0.875c-0.75-1.312-2.938-1.938-4.812,0.125s-0.312,5.062,0.5,5.75
		c0.812,0.688-1.875,2.688-2.25,2.938s-2.5-0.562-5.688-0.25c-3.188,0.312-5,1.75-5,1.75c-1.75-1.312-4-2.375-8.125-2.625
		s-7.5-0.25-12.375,1.562s-8.938,5.312-10,10.625c-1.062,5.313,2.812,7.312,3.312,7.812s0,0-1.562-0.125s-3.125-0.188-5-0.188
		S0.3,43.33,0.3,44.58c0,0,0.375,1.188,0.375,2.125c0,0.938,12.938,0.312,21.188,0c8.25-0.312,29.5-0.625,33.5-0.562
		s3-3.562,2.938-5.188c-0.062-1.625-2.125-1.312-3.938-1.188c-1.813,0.124-4.688-0.125-5.062-0.125s-0.5-0.312-0.625-1.812
		s-1.625-2.625-1.812-2.625c-0.188,0,1.375-2,3.375-4.375c2-2.375-0.125-5.75-0.75-6.062s0-0.625,0.375-1.125
		S50.8,21.705,52.237,21.83z M7.591,29.476c3.417-3.792,7.458-5.292,11.75-6.125s9.625-0.25,11.167,0.417
		c1.542,0.666,2.458,0.625,1.5,1.333s-4.792,4.708-5.417,6.875s-1.333,5.208-0.417,6.292c0.917,1.083,1.625,1.625,0.917,1.833
		s-7.583,0.375-7.583,0.375c-2.125,0.083-8.833,0.25-10.333-0.667C7.675,38.893,4.175,33.268,7.591,29.476z M55.758,41.601
		c1-0.083,0.583,1.5,0.583,2.208c0,0.709-0.833,0.542-2.958,0.5c-2.125-0.041-4.958-0.375-6.458,0.125s-4.25,0.417-7.833,0.375
		c-3.583-0.041-8.25,0.667-10.583,0.959c-2.333,0.291-4.833-0.542-6.583-0.667s-4.583-0.125-6.333,0.083
		c-1.75,0.209-4.333,0.459-6.667,0.25c-2.333-0.208-5.708-0.083-6.542-0.041c-0.833,0.041-0.958-1.417-0.875-2.459
		c0.083-1.041,0.75-0.875,1.792-0.791c1.042,0.083,2.589,0.321,4.167,0.458c0.958,0.083,3.125-0.25,4.792-0.292
		c1.667-0.041,3.458,0.125,5.458,0.125s3.833-0.083,7.208-0.416c3.375-0.334,8.083-0.084,10.417-0.084c2.333,0,7-0.416,11.125-0.5
		C50.591,41.351,54.758,41.684,55.758,41.601z M47.175,38.309c0.75,1.459-0.542,1.417-1.458,1.417c-0.917,0-4.167,0.125-4.667,0.208
		c-0.5,0.084,1.792-1.916,2.542-2.458c0,0,0.458-0.125,1.125-0.917C45.383,35.768,46.425,36.851,47.175,38.309z M47.758,31.309
		c-2.125,2.25-6.125,5.584-7.417,6.5c-1.292,0.917-1.875,1.167-2.042,1.625c-0.167,0.459-0.125,0.625-0.792,0.75
		s-3.667,0.125-4.75,0.125s-1.625,0.542-1.083,0c0.542-0.541,1.333-1.416,1.125-1.583s-2.792,1.583-3.167,1.417
		c-0.375-0.167-1.375-0.709-0.208-1.667s2.708-1.833,2.542-2.125c-0.167-0.292-3.5,2.25-3.667,1.917c-0.167-0.334-0.5-1,0-1.667
		s3.75-3.542,3.5-3.833c-0.25-0.292-2.042,1.083-2.875,1.958s-1.375,1.75-1.375,1s0.208-1.5,0.917-2.292
		c0.708-0.791,1.583-1.583,1.417-1.791c-0.167-0.209-0.583-0.042-0.583-0.042c-0.333,0.333-0.625,0.875-0.917,0.792
		c-0.292-0.084,0.083-1.167,1.542-3.042c1.458-1.875,3.792-3.625,6.75-4.708c2.958-1.084,6.667-0.875,8.333-0.875
		c1.667,0,3.5,2,3.75,3.291C49.008,28.351,49.883,29.059,47.758,31.309z M48.008,23.309c-0.315-0.114-0.833-0.458-0.333-0.958
		s2.792-2.708,2.333-3.292c-0.458-0.583-2.125-1.583-1.792-3.125c0.333-1.541,1.167-2.5,1.958-2.125s0.042,1.334,0.5,1.875
		c0.458,0.542,1,0.417,1.625-0.125c0.625-0.541,1.792-1.791,2.833-1.666c1.042,0.125,1.625,1.041,0.542,1.625
		c-1.083,0.583-1.708,1.791-0.75,1.875c0.958,0.083,1.542-0.042,2.167,0.458s0.875,1.75-0.625,2.208
		c-1.5,0.459-3.417-0.25-4.208,0.042c-0.792,0.292-1.875,1.292-2.375,1.917S48.466,23.476,48.008,23.309z M35.591,30.018
		c0.833-0.084,1.208-1.375,0.042-1.709c-0.721-0.206-1.458,0.459-1.417,1.167C34.258,30.184,34.758,30.101,35.591,30.018z
		 M41.55,29.976c-0.583-0.045-0.875,0-1.333,0.833c-0.458,0.834,0.5,0.917,1.042,1.042s1-0.542,1-0.875S42.091,30.018,41.55,29.976z
		 M36.216,31.476c-0.342-0.098-1.125,0.125-0.792,0.875s0.708,1,1.167,0.667C37.05,32.684,36.8,31.643,36.216,31.476z
		 M39.633,34.268c-0.585,0.159-0.917,1.083-0.292,1.5c0.625,0.416,1.333,0.458,1.583-0.334
		C41.175,34.643,40.55,34.018,39.633,34.268z M34.633,35.059c-0.708,0.048-1.75,1.209-1.167,1.667s1.083,0.083,1.5-0.333
		C35.383,35.976,35.258,35.018,34.633,35.059z M26.008,26.726c0.333-0.208,0.375-1.333-0.417-1.458
		c-0.578-0.092-1.875,0.541-1.333,1.333S25.675,26.934,26.008,26.726z M19.341,28.059c0.792-0.583,0.75-1.583-0.25-1.625
		c-0.335-0.014-1.583,0.792-1.25,1.375C18.175,28.393,18.55,28.643,19.341,28.059z M14.841,28.893c0.458-0.375,0.458-1.5-0.75-1.875
		c-0.772-0.24-2,0.708-1.25,1.708S14.383,29.268,14.841,28.893z M22.591,30.851c0.5-0.25,0.917-1.208-0.292-1.417
		c-0.54-0.093-1.5,0.5-1.167,1.209C21.466,31.351,22.091,31.101,22.591,30.851z M15.091,32.851c0.417,0.917,0.917,1.083,1.542,0.5
		s0.667-1.25,0.042-1.75C16.122,31.158,14.675,31.934,15.091,32.851z M10.383,33.893c0.917,0.625,1.167,0.25,1.458-0.5
		c0.292-0.75,0.333-0.959-0.333-1.209C10.996,31.992,9.466,33.268,10.383,33.893z M14.05,37.809c0.333-0.291,0.125-1.25-0.792-1.291
		c-0.543-0.024-1.042,0.833-0.542,1.291C13.216,38.268,13.716,38.101,14.05,37.809z M19.133,38.518
		c0.875,0.291,1.583,0.041,1.667-0.417s-0.208-1.167-0.958-1.167C19.215,36.934,18.258,38.226,19.133,38.518z M22.591,35.518
		c0.333-0.375-0.333-0.834-0.583-0.959c-0.82-0.409-1.333,0.584-0.625,1.167S22.258,35.893,22.591,35.518z"/>
</g>
<g>
</g>
<g>
</g>
<g>
</g>
<g>
</g>
<g>
</g>
<g>
</g>
<g>
</g>
<g>
</g>
<g>
</g>
<g>
</g>
<g>
</g>
<g>
</g>
<g>
</g>
<g>
</g>
<g>
</g>
</svg>
