<?xml version="1.0" ?><svg viewBox="0 0 64 64" xmlns="http://www.w3.org/2000/svg"><defs><style>.cls-1,.cls-2{fill:none;stroke:#000;stroke-linejoin:round;stroke-width:2px;}.cls-1{stroke-linecap:round;}</style></defs><g id="food-bag"><circle cx="6.0756" cy="21.5978" r="1.0691"/><line class="cls-1" x1="9.9868" x2="7.0388" y1="9.1631" y2="12.1112"/><line class="cls-1" x1="7.0388" x2="9.9868" y1="9.1631" y2="12.1112"/><polygon class="cls-1" points="48.994 53 48.994 19 13.994 19 13.994 53 12.994 60 49.994 60 48.994 53"/><polyline class="cls-1" points="25.994 18.727 25.994 12 36.994 12 36.994 18.775"/><polyline class="cls-1" points="40.994 18.775 40.994 12 38.994 8 23.994 8 21.994 12 21.994 18.727"/><circle class="cls-1" cx="53.4935" cy="9.5" r="2.5"/><circle cx="55.0756" cy="19.5978" r="1.0691"/><path class="cls-1" d="M29,24h0a0,0,0,0,1,0,0V39a0,0,0,0,1,0,0H25a0,0,0,0,1,0,0V28A4,4,0,0,1,29,24Z"/><line class="cls-1" x1="29" x2="29" y1="49" y2="37"/><path class="cls-1" d="M38,24v4a3,3,0,0,1-3,3h0a3,3,0,0,1-3-3V24"/><line class="cls-1" x1="35" x2="35" y1="24" y2="49"/><line class="cls-2" x1="22" x2="26" y1="12" y2="12"/><line class="cls-2" x1="37" x2="41" y1="12" y2="12"/><line class="cls-2" x1="49" x2="14" y1="53" y2="53"/></g></svg>